<svg xmlns="http://www.w3.org/2000/svg" width="128" height="128" viewBox="0 0 24 24" fill="none">
    <defs>
        <linearGradient id="grad1" x1="0%" y1="0%" x2="100%" y2="100%">
            <stop offset="0%" style="stop-color:#60A5FA;stop-opacity:1" />
            <stop offset="100%" style="stop-color:#3B82F6;stop-opacity:1" />
        </linearGradient>
         <linearGradient id="grad2" x1="0%" y1="0%" x2="100%" y2="100%">
            <stop offset="0%" style="stop-color:#4ADE80;stop-opacity:1" />
            <stop offset="100%" style="stop-color:#22C55E;stop-opacity:1" />
        </linearGradient>
    </defs>

    <!-- Base da Balança (Circular) -->
    <circle cx="12" cy="12" r="10" fill="url(#grad1)"/>
    <circle cx="12" cy="12" r="9" fill="#F9FAFB"/>

    <!-- Gráfico de Barras Descendente -->
    <rect x="7" y="12" width="2" height="5" rx="1" fill="url(#grad2)"/>
    <rect x="10" y="10" width="2" height="7" rx="1" fill="url(#grad2)"/>
    <rect x="13" y="8" width="2" height="9" rx="1" fill="url(#grad2)"/>

    <!-- Ícone de Coração (Saúde) -->
    <path d="M17.5 9.5a1.5 1.5 0 0 0-2.12 0l-.38.38-.38-.38a1.5 1.5 0 0 0-2.12 2.12l2.5 2.5 2.5-2.5a1.5 1.5 0 0 0 0-2.12z" fill="#EF4444"/>
</svg>
