<svg xmlns="http://www.w3.org/2000/svg" width="192" height="192" viewBox="0 0 192 192" fill="none">
    <defs>
        <linearGradient id="grad1" x1="0%" y1="0%" x2="100%" y2="100%">
            <stop offset="0%" style="stop-color:#60A5FA;stop-opacity:1" />
            <stop offset="100%" style="stop-color:#3B82F6;stop-opacity:1" />
        </linearGradient>
         <linearGradient id="grad2" x1="0%" y1="0%" x2="100%" y2="100%">
            <stop offset="0%" style="stop-color:#4ADE80;stop-opacity:1" />
            <stop offset="100%" style="stop-color:#22C55E;stop-opacity:1" />
        </linearGradient>
    </defs>

    <!-- Fundo circular com gradiente azul -->
    <circle cx="96" cy="96" r="80" fill="url(#grad1)"/>
    <circle cx="96" cy="96" r="72" fill="#F9FAFB"/>

    <!-- Gráfico de Barras Descendente -->
    <rect x="56" y="96" width="16" height="40" rx="8" fill="url(#grad2)"/>
    <rect x="80" y="80" width="16" height="56" rx="8" fill="url(#grad2)"/>
    <rect x="104" y="64" width="16" height="72" rx="8" fill="url(#grad2)"/>

    <!-- Ícone de Coração (Saúde) -->
    <path d="M140 76a12 12 0 0 0-17 0l-3 3-3-3a12 12 0 0 0-17 17l20 20 20-20a12 12 0 0 0 0-17z" fill="#EF4444"/>
</svg>
